<svg width="100" height="16" viewBox="0 0 100 16" fill="none" xmlns="http://www.w3.org/2000/svg">
<g clip-path="url(#clip0_458_1238)">
<path fill-rule="evenodd" clip-rule="evenodd" d="M6.95679 10.0767V7.89402H14.18V15.075H12.0405V12.2794C9.06261 12.2794 8.43171 15.075 8.43171 15.075C7.68373 15.1992 6.74332 15.1745 6.66725 15.1725C6.66433 15.1725 6.66268 15.1724 6.66237 15.1724C2.80963 14.949 0 12.1047 0 7.9112C0 3.71774 3.03676 0.635658 7.12784 0.635658C9.8169 0.635658 12.0433 1.96187 13.2546 4.06147L11.6507 5.6999C10.9049 3.94975 9.25048 2.84124 7.12784 2.84124C4.20324 2.84124 2.1591 4.92651 2.1591 7.9112C2.1591 12.8981 6.95679 12.9726 6.95679 12.9726C7.92698 11.231 9.73278 10.1168 11.9227 10.0767H6.95679ZM84.533 11.3914V5.69703H85.935L88.0941 3.49145H84.5302V0.635658H82.3711V11.3914C82.3711 13.4251 84.0535 15.075 86.1313 15.075H88.0941V12.8695H86.1313C85.248 12.8695 84.5302 12.2078 84.5302 11.3943L84.533 11.3914ZM32.0949 9.28325C32.0949 7.05475 30.5723 5.49653 28.3936 5.49653C26.2064 5.49653 24.681 7.05475 24.681 9.28325C24.681 11.5117 26.1784 13.07 28.3936 13.07C30.6088 13.07 32.0949 11.5117 32.0949 9.28325ZM22.5219 9.28325C22.5219 5.83166 25.0231 3.29095 28.3936 3.29095C31.764 3.29095 34.254 5.78583 34.254 9.28325C34.254 12.7807 31.764 15.2755 28.3936 15.2755C25.0231 15.2755 22.5219 12.7348 22.5219 9.28325ZM49.3172 10.7441V3.48859H51.4763V10.7441C51.4763 13.3879 49.5948 15.2727 47.0488 15.2727C45.6748 15.2727 44.4943 14.7227 43.6951 13.8004C42.9016 14.7227 41.7183 15.2727 40.3443 15.2727C37.7983 15.2727 35.9084 13.3793 35.9084 10.7441V3.48859H38.0675V10.7441C38.0675 12.1333 38.9676 13.0671 40.3443 13.0671C41.7211 13.0671 42.6128 12.1534 42.6128 10.7441V3.48859H44.7719V10.7441C44.7719 12.1333 45.672 13.0671 47.0488 13.0671C48.4255 13.0671 49.3172 12.1534 49.3172 10.7441ZM55.4552 15.075V7.81954C55.4552 6.41026 56.3469 5.49653 57.7237 5.49653C59.1005 5.49653 60.0006 6.43032 60.0006 7.81954V15.075H62.1597V7.81954C62.1597 6.41026 63.0513 5.49653 64.4281 5.49653C65.8049 5.49653 66.705 6.43032 66.705 7.81954V15.075H68.8641V7.81954C68.8641 5.18431 66.9742 3.29095 64.4281 3.29095C63.0541 3.29095 61.8708 3.84091 61.0773 4.76324C60.2782 3.84091 59.0977 3.29095 57.7237 3.29095C55.1776 3.29095 53.2961 5.17571 53.2961 7.81954V15.075H55.4552ZM21.8658 5.69417C19.6815 5.69703 18.1589 7.2524 18.1589 9.48089V15.0722H15.9998V9.48089C15.9998 6.0293 18.4982 3.48859 21.8658 3.48859V5.69417ZM95.121 13.1559C94.4508 13.1559 93.8452 13.0098 93.3264 12.7434L100 5.92618C99.9411 5.83739 99.8794 5.75145 99.8177 5.66552C99.8009 5.64261 99.7813 5.61683 99.7617 5.59391C99.714 5.5309 99.6635 5.46788 99.613 5.40773L99.5542 5.33898C99.4925 5.26737 99.4308 5.19863 99.3663 5.13275C99.3621 5.12845 99.3579 5.12344 99.3537 5.11842L99.346 5.10949L99.341 5.1041L99.327 5.08978L99.3046 5.06686C99.2401 5.00098 99.1728 4.9351 99.1027 4.87209C99.0971 4.86779 99.0922 4.86349 99.0873 4.8592C99.0824 4.8549 99.0775 4.8506 99.0719 4.84631C99.0046 4.78615 98.9373 4.72887 98.8672 4.67158C98.8391 4.64866 98.8111 4.62575 98.7803 4.60283C98.727 4.55987 98.6709 4.51977 98.6148 4.47967C98.5994 4.46821 98.5833 4.45675 98.5671 4.44529C98.551 4.43383 98.5349 4.42238 98.5195 4.41092C98.5083 4.40233 98.497 4.39373 98.4858 4.38801C97.5493 3.74925 96.3996 3.38261 95.121 3.38261C91.7506 3.38261 89.2494 5.92332 89.2494 9.3749C89.2494 10.6897 89.6055 11.8669 90.2308 12.8208C90.4495 13.153 90.7019 13.4595 90.9823 13.7374C91.2178 13.9665 91.4702 14.1785 91.7421 14.3618C92.6815 15.0034 93.8368 15.3672 95.121 15.3672C96.4052 15.3672 97.5521 15.0063 98.4914 14.3675L96.9156 12.7577C96.3996 13.0184 95.794 13.1588 95.121 13.1588V13.1559ZM91.4085 9.36917C91.4085 7.14068 92.9339 5.58245 95.121 5.58245C95.7856 5.58245 96.3912 5.72854 96.9072 5.99493L91.8122 11.1995C91.5515 10.6696 91.4085 10.0509 91.4085 9.36917ZM73.2664 3.48859H76.7939V3.48572C78.8717 3.48572 80.5541 5.13561 80.5541 7.16933V15.0722H78.395V14.7055C77.9071 14.9404 77.3659 15.0722 76.7939 15.0722H73.516C71.5027 15.0722 70.0221 13.5397 70.0221 11.4774C70.0221 9.415 71.4971 7.89115 73.516 7.89115H78.395V7.16933C78.395 6.35584 77.6771 5.69417 76.7939 5.69417H71.1073L73.2664 3.48859ZM73.516 12.8666H76.7939C77.6771 12.8666 78.395 12.1247 78.395 11.211V10.0996H73.516C72.6916 10.0996 72.1813 10.6381 72.1813 11.4802C72.1813 12.3224 72.7056 12.8666 73.516 12.8666Z" fill="white"/>
</g>
<defs>
<clipPath id="clip0_458_1238">
<rect width="100" height="14.7287" fill="white" transform="translate(0 0.635658)"/>
</clipPath>
</defs>
</svg>
