<?xml version="1.0" encoding="UTF-8"?>
<svg id="Camada_2" data-name="Camada 2" xmlns="http://www.w3.org/2000/svg" viewBox="0 0 50.58 50.76">
  <defs>
    <style>
      .cls-1 {
        fill: #bf0;
        stroke-width: 0px;
      }
    </style>
  </defs>
  <g id="Camada_1-2" data-name="Camada 1">
    <path class="cls-1" d="M24.81,25.34v7.62h17.71c-7.81.14-14.25,4.03-17.71,10.11,0,0,0,0,0,0,0,0-17.11-.26-17.11-17.67,0-10.42,7.29-17.7,17.72-17.7,7.57,0,13.47,3.87,16.13,9.98l5.72-5.72C42.95,4.63,35.01,0,25.42,0,10.83,0,0,10.76,0,25.4s10.02,24.57,23.76,25.35c.03,0,3.54.11,6.31-.34,0,0,2.25-9.76,12.87-9.76v9.76h7.63v-25.07h-25.76Z"/>
  </g>
</svg>