<svg fill="none" height="833" width="2500" xmlns="http://www.w3.org/2000/svg" viewBox="1 2 155 49"><mask id="a" fill="#000" height="49" maskUnits="userSpaceOnUse" width="155" x="1" y="2"><path d="M1 2h155v49H1z" fill="#fff"/><path d="M152.939 12.038v.007c-.712 2.86-2.76 4.931-4.233 6.238l-.036.032c-.229.2-.47.385-.72.558.108.222.2.453.273.69l.012.043c.281.942.352 1.934.21 2.907a23.375 23.375 0 0 1-1.311 4.752c-.266.744-.519 1.45-.713 2.142-.535 1.854-1.145 4.048-1.636 6.29a18.209 18.209 0 0 0-.364 4.977 4.19 4.19 0 0 1-1.794 3.81 13.524 13.524 0 0 1-3.925 2.103c-2.332.71-3.96.091-4.914-.554a4.49 4.49 0 0 1-.448-.345 10.056 10.056 0 0 1-3.873 1.426c-.55.082-1.104.124-1.66.127a7.648 7.648 0 0 1-5.786-2.4 7.856 7.856 0 0 1-.55-.646c-.517.373-1.061.706-1.628.998a8.52 8.52 0 0 1-5.211.903 7.845 7.845 0 0 1-4.115-1.73 7.66 7.66 0 0 1-2.495-4.614 11.025 11.025 0 0 1-.17-1.343c-.796 1.137-1.656 2.202-2.484 3.204a16.712 16.712 0 0 1-5.702 4.618 10.307 10.307 0 0 1-7.406.633 13.167 13.167 0 0 1-3.838-1.627 7.83 7.83 0 0 1-1.683-1.478c-.483.5-.966.959-1.43 1.402-.28.27-.566.54-.843.812a4.555 4.555 0 0 1-3.291 1.315c-.324 0-.647-.027-.966-.08a16.124 16.124 0 0 1-4.087-1.171l-.04-.02a7.699 7.699 0 0 1-3.255-2.733c-1.223 1-2.57 1.837-4.008 2.491a13.746 13.746 0 0 1-4.542 1.295c-1.387.155-2.784.21-4.179.163a12.822 12.822 0 0 1-6.562-2.091 10.05 10.05 0 0 1-4.099-5.89l-.04-.154a9.255 9.255 0 0 1-2.106.685 10.064 10.064 0 0 1-5.683-.4 6.03 6.03 0 0 1-3.774-4.455 62.93 62.93 0 0 0-4.04 6.606c-.127.234-.253.519-.392.816a15.579 15.579 0 0 1-.935 1.81 6.586 6.586 0 0 1-5.793 3.192h-.02a7.569 7.569 0 0 1-3.572-.78 5.6 5.6 0 0 1-.369-.215c-.17.088-.34.17-.519.254a15.327 15.327 0 0 1-5.08 1.533l-.286.031c-.732.071-1.536.15-2.384.15-.241 0-.487-.007-.732-.02A11.473 11.473 0 0 1 7.026 45.8a10.707 10.707 0 0 1-3.722-6.21 14.415 14.415 0 0 1-.155-5.013 20.563 20.563 0 0 1 2.325-6.927c.9-1.72 1.974-3.342 3.204-4.843a20.278 20.278 0 0 1 4.705-4.19 13.148 13.148 0 0 1 4.736-1.905c2.301-.428 4.511.123 6.772 1.687a11.128 11.128 0 0 1 2.967 2.998c1.544-2.159 3.477-3.406 5.746-3.7a5.73 5.73 0 0 1 5.877 2.777c.652-.448 1.341-.84 2.06-1.172a10.297 10.297 0 0 1 4.855-1.058c2.594.115 4.566.975 6.023 2.63.58.66 1.02 1.43 1.295 2.265a17.297 17.297 0 0 1 1.91-1.972 13.083 13.083 0 0 1 6.565-3.28c.901-.128 1.814-.157 2.721-.086.19.008.384.016.574.02 1.374.052 2.723.378 3.969.958a8.686 8.686 0 0 1 3.86 3.26c.199-.33.413-.654.639-.967 1.346-1.865 3.033-2.966 5.013-3.275a6.482 6.482 0 0 1 5.058 1.16 5.538 5.538 0 0 1 1.984 5.703c-.076.356-.155.717-.234 1.073.32-.685.65-1.378.994-2.063 1.038-2.091 2.408-3.52 4.186-4.364a6.679 6.679 0 0 1 6.863.546c.895.61 1.992 1.802 2.143 4.02a10.573 10.573 0 0 1-.606 3.936c-.087.286-.174.575-.266.864l.167-.38c.336-.769.677-1.537 1.022-2.297 1.053-2.337 2.134-4.725 5.021-6.511a10.152 10.152 0 0 1 2.036-1.014c2.237-.76 6.855-.574 8.487 2.388a11.885 11.885 0 0 1 2.914-1.96 10.46 10.46 0 0 1 4.662-1.09l.15.005a12.046 12.046 0 0 1 3.656.463 6.43 6.43 0 0 1 2.102 1.105c1.775-.63 4.036-.59 5.703.72.329.264.622.569.872.908a16.15 16.15 0 0 1 1.718-2.246 8.253 8.253 0 0 1 2.539-1.909 13.006 13.006 0 0 1-.796-2.653c-.184-.868-.29-1.75-.317-2.638v-.07a7.709 7.709 0 0 1 1.414-4.658 6.612 6.612 0 0 1 5.251-2.824 8.31 8.31 0 0 1 4.234.923 6.227 6.227 0 0 1 3.017 7.105z" fill="none"/></mask><path d="M152.939 12.038v.007c-.712 2.86-2.76 4.931-4.233 6.238l-.036.032c-.229.2-.47.385-.72.558.108.222.2.453.273.69l.012.043c.281.942.352 1.934.21 2.907a23.375 23.375 0 0 1-1.311 4.752c-.266.744-.519 1.45-.713 2.142-.535 1.854-1.145 4.048-1.636 6.29a18.209 18.209 0 0 0-.364 4.977 4.19 4.19 0 0 1-1.794 3.81 13.524 13.524 0 0 1-3.925 2.103c-2.332.71-3.96.091-4.914-.554a4.49 4.49 0 0 1-.448-.345 10.056 10.056 0 0 1-3.873 1.426c-.55.082-1.104.124-1.66.127a7.648 7.648 0 0 1-5.786-2.4 7.856 7.856 0 0 1-.55-.646c-.517.373-1.061.706-1.628.998a8.52 8.52 0 0 1-5.211.903 7.845 7.845 0 0 1-4.115-1.73 7.66 7.66 0 0 1-2.495-4.614 11.025 11.025 0 0 1-.17-1.343c-.796 1.137-1.656 2.202-2.484 3.204a16.712 16.712 0 0 1-5.702 4.618 10.307 10.307 0 0 1-7.406.633 13.167 13.167 0 0 1-3.838-1.627 7.83 7.83 0 0 1-1.683-1.478c-.483.5-.966.959-1.43 1.402-.28.27-.566.54-.843.812a4.555 4.555 0 0 1-3.291 1.315c-.324 0-.647-.027-.966-.08a16.124 16.124 0 0 1-4.087-1.171l-.04-.02a7.699 7.699 0 0 1-3.255-2.733c-1.223 1-2.57 1.837-4.008 2.491a13.746 13.746 0 0 1-4.542 1.295c-1.387.155-2.784.21-4.179.163a12.822 12.822 0 0 1-6.562-2.091 10.05 10.05 0 0 1-4.099-5.89l-.04-.154a9.255 9.255 0 0 1-2.106.685 10.064 10.064 0 0 1-5.683-.4 6.03 6.03 0 0 1-3.774-4.455 62.93 62.93 0 0 0-4.04 6.606c-.127.234-.253.519-.392.816a15.579 15.579 0 0 1-.935 1.81 6.586 6.586 0 0 1-5.793 3.192h-.02a7.569 7.569 0 0 1-3.572-.78 5.6 5.6 0 0 1-.369-.215c-.17.088-.34.17-.519.254a15.327 15.327 0 0 1-5.08 1.533l-.286.031c-.732.071-1.536.15-2.384.15-.241 0-.487-.007-.732-.02A11.473 11.473 0 0 1 7.026 45.8a10.707 10.707 0 0 1-3.722-6.21 14.415 14.415 0 0 1-.155-5.013 20.563 20.563 0 0 1 2.325-6.927c.9-1.72 1.974-3.342 3.204-4.843a20.278 20.278 0 0 1 4.705-4.19 13.148 13.148 0 0 1 4.736-1.905c2.301-.428 4.511.123 6.772 1.687a11.128 11.128 0 0 1 2.967 2.998c1.544-2.159 3.477-3.406 5.746-3.7a5.73 5.73 0 0 1 5.877 2.777c.652-.448 1.341-.84 2.06-1.172a10.297 10.297 0 0 1 4.855-1.058c2.594.115 4.566.975 6.023 2.63.58.66 1.02 1.43 1.295 2.265a17.297 17.297 0 0 1 1.91-1.972 13.083 13.083 0 0 1 6.565-3.28c.901-.128 1.814-.157 2.721-.086.19.008.384.016.574.02 1.374.052 2.723.378 3.969.958a8.686 8.686 0 0 1 3.86 3.26c.199-.33.413-.654.639-.967 1.346-1.865 3.033-2.966 5.013-3.275a6.482 6.482 0 0 1 5.058 1.16 5.538 5.538 0 0 1 1.984 5.703c-.076.356-.155.717-.234 1.073.32-.685.65-1.378.994-2.063 1.038-2.091 2.408-3.52 4.186-4.364a6.679 6.679 0 0 1 6.863.546c.895.61 1.992 1.802 2.143 4.02a10.573 10.573 0 0 1-.606 3.936c-.087.286-.174.575-.266.864l.167-.38c.336-.769.677-1.537 1.022-2.297 1.053-2.337 2.134-4.725 5.021-6.511a10.152 10.152 0 0 1 2.036-1.014c2.237-.76 6.855-.574 8.487 2.388a11.885 11.885 0 0 1 2.914-1.96 10.46 10.46 0 0 1 4.662-1.09l.15.005a12.046 12.046 0 0 1 3.656.463 6.43 6.43 0 0 1 2.102 1.105c1.775-.63 4.036-.59 5.703.72.329.264.622.569.872.908a16.15 16.15 0 0 1 1.718-2.246 8.253 8.253 0 0 1 2.539-1.909 13.006 13.006 0 0 1-.796-2.653c-.184-.868-.29-1.75-.317-2.638v-.07a7.709 7.709 0 0 1 1.414-4.658 6.612 6.612 0 0 1 5.251-2.824 8.31 8.31 0 0 1 4.234.923 6.227 6.227 0 0 1 3.017 7.105z" fill="#262626"/><path d="M152.939 12.038v.007c-.712 2.86-2.76 4.931-4.233 6.238l-.036.032c-.229.2-.47.385-.72.558.108.222.2.453.273.69l.012.043c.281.942.352 1.934.21 2.907a23.375 23.375 0 0 1-1.311 4.752c-.266.744-.519 1.45-.713 2.142-.535 1.854-1.145 4.048-1.636 6.29a18.209 18.209 0 0 0-.364 4.977 4.19 4.19 0 0 1-1.794 3.81 13.524 13.524 0 0 1-3.925 2.103c-2.332.71-3.96.091-4.914-.554a4.49 4.49 0 0 1-.448-.345 10.056 10.056 0 0 1-3.873 1.426c-.55.082-1.104.124-1.66.127a7.648 7.648 0 0 1-5.786-2.4 7.856 7.856 0 0 1-.55-.646c-.517.373-1.061.706-1.628.998a8.52 8.52 0 0 1-5.211.903 7.845 7.845 0 0 1-4.115-1.73 7.66 7.66 0 0 1-2.495-4.614 11.025 11.025 0 0 1-.17-1.343c-.796 1.137-1.656 2.202-2.484 3.204a16.712 16.712 0 0 1-5.702 4.618 10.307 10.307 0 0 1-7.406.633 13.167 13.167 0 0 1-3.838-1.627 7.83 7.83 0 0 1-1.683-1.478c-.483.5-.966.959-1.43 1.402-.28.27-.566.54-.843.812a4.555 4.555 0 0 1-3.291 1.315c-.324 0-.647-.027-.966-.08a16.124 16.124 0 0 1-4.087-1.171l-.04-.02a7.699 7.699 0 0 1-3.255-2.733c-1.223 1-2.57 1.837-4.008 2.491a13.746 13.746 0 0 1-4.542 1.295c-1.387.155-2.784.21-4.179.163a12.822 12.822 0 0 1-6.562-2.091 10.05 10.05 0 0 1-4.099-5.89l-.04-.154a9.255 9.255 0 0 1-2.106.685 10.064 10.064 0 0 1-5.683-.4 6.03 6.03 0 0 1-3.774-4.455 62.93 62.93 0 0 0-4.04 6.606c-.127.234-.253.519-.392.816a15.579 15.579 0 0 1-.935 1.81 6.586 6.586 0 0 1-5.793 3.192h-.02a7.569 7.569 0 0 1-3.572-.78 5.6 5.6 0 0 1-.369-.215c-.17.088-.34.17-.519.254a15.327 15.327 0 0 1-5.08 1.533l-.286.031c-.732.071-1.536.15-2.384.15-.241 0-.487-.007-.732-.02A11.473 11.473 0 0 1 7.026 45.8a10.707 10.707 0 0 1-3.722-6.21 14.415 14.415 0 0 1-.155-5.013 20.563 20.563 0 0 1 2.325-6.927c.9-1.72 1.974-3.342 3.204-4.843a20.278 20.278 0 0 1 4.705-4.19 13.148 13.148 0 0 1 4.736-1.905c2.301-.428 4.511.123 6.772 1.687a11.128 11.128 0 0 1 2.967 2.998c1.544-2.159 3.477-3.406 5.746-3.7a5.73 5.73 0 0 1 5.877 2.777c.652-.448 1.341-.84 2.06-1.172a10.297 10.297 0 0 1 4.855-1.058c2.594.115 4.566.975 6.023 2.63.58.66 1.02 1.43 1.295 2.265a17.297 17.297 0 0 1 1.91-1.972 13.083 13.083 0 0 1 6.565-3.28c.901-.128 1.814-.157 2.721-.086.19.008.384.016.574.02 1.374.052 2.723.378 3.969.958a8.686 8.686 0 0 1 3.86 3.26c.199-.33.413-.654.639-.967 1.346-1.865 3.033-2.966 5.013-3.275a6.482 6.482 0 0 1 5.058 1.16 5.538 5.538 0 0 1 1.984 5.703c-.076.356-.155.717-.234 1.073.32-.685.65-1.378.994-2.063 1.038-2.091 2.408-3.52 4.186-4.364a6.679 6.679 0 0 1 6.863.546c.895.61 1.992 1.802 2.143 4.02a10.573 10.573 0 0 1-.606 3.936c-.087.286-.174.575-.266.864l.167-.38c.336-.769.677-1.537 1.022-2.297 1.053-2.337 2.134-4.725 5.021-6.511a10.152 10.152 0 0 1 2.036-1.014c2.237-.76 6.855-.574 8.487 2.388a11.885 11.885 0 0 1 2.914-1.96 10.46 10.46 0 0 1 4.662-1.09l.15.005a12.046 12.046 0 0 1 3.656.463 6.43 6.43 0 0 1 2.102 1.105c1.775-.63 4.036-.59 5.703.72.329.264.622.569.872.908a16.15 16.15 0 0 1 1.718-2.246 8.253 8.253 0 0 1 2.539-1.909 13.006 13.006 0 0 1-.796-2.653c-.184-.868-.29-1.75-.317-2.638v-.07a7.709 7.709 0 0 1 1.414-4.658 6.612 6.612 0 0 1 5.251-2.824 8.31 8.31 0 0 1 4.234.923 6.227 6.227 0 0 1 3.017 7.105z" mask="url(#a)" stroke="#fff" stroke-width="4"/><path d="M150.051 11.325c-.475 1.905-1.893 3.47-3.323 4.737a6.578 6.578 0 0 1-1.695 1.057c-.744.33-1.243.12-1.691-.55a8.198 8.198 0 0 1-1.097-2.962c-.15-.7-.237-1.412-.257-2.127a4.767 4.767 0 0 1 .851-2.907 3.66 3.66 0 0 1 2.955-1.592 5.337 5.337 0 0 1 2.74.582c1.359.706 1.874 2.325 1.517 3.763zM145.387 20.454c-.313-.994-1.228-1.172-2.111-1.255-1.449-.13-2.586.598-3.501 1.584a15.265 15.265 0 0 0-1.96 2.756c-1.149 1.986-1.847 4.18-2.516 6.357a377.697 377.697 0 0 0-1.359 4.5c-.321 1.087-.683 2.764-1.69 3.61-.251.233-.58.364-.922.369-.42-.06-.571-.503-.59-.915a14.15 14.15 0 0 1-.004-1.366c.115-1.396.407-2.772.867-4.095.673-2.178 1.398-4.34 2.051-6.527a3.525 3.525 0 0 0 .036-2.344 1.733 1.733 0 0 0-.515-.69c-.907-.712-2.55-.593-3.544.068-.329.226-.654.46-.998.697-.076-.123-.135-.21-.19-.305a3.62 3.62 0 0 0-2.143-1.794 9.977 9.977 0 0 0-2.942-.325 7.566 7.566 0 0 0-3.355.804 10.584 10.584 0 0 0-4.043 3.596 35.554 35.554 0 0 0-2.986 4.844 20.48 20.48 0 0 0-1.945 5.405 13.73 13.73 0 0 0-.237 2.091 8.312 8.312 0 0 0 .154 1.695 4.738 4.738 0 0 0 1.497 2.891 4.96 4.96 0 0 0 2.618 1.054 5.527 5.527 0 0 0 3.406-.594 10.882 10.882 0 0 0 3.005-2.333c.361-.388.741-.76 1.153-1.188.047.25.083.408.107.566a5.898 5.898 0 0 0 1.445 3.188c1.339 1.41 3.054 1.644 4.86 1.379a7.12 7.12 0 0 0 2.79-1.045c.442-.282 1.738-1.801 2.244-1.407.621.484.684 1.379 1.379 1.847a2.792 2.792 0 0 0 2.391.177 10.976 10.976 0 0 0 3.065-1.684 1.255 1.255 0 0 0 .55-1.24 21.511 21.511 0 0 1 .428-5.765c.479-2.175 1.066-4.325 1.679-6.464.618-2.178 1.636-4.24 1.945-6.51a3.799 3.799 0 0 0-.119-1.632zm-19.98 6.844a17.86 17.86 0 0 1-3.592 7.235 9.409 9.409 0 0 1-2.154 2.076c-.488.324-.963.443-1.232-.159a1.695 1.695 0 0 1-.139-.523c-.107-1.033.404-2.11.757-3.053.388-1.061.822-2.1 1.303-3.117.693-1.469 1.505-2.879 2.772-3.936a4.972 4.972 0 0 1 1.366-.729c.337-.135.733.166.887.539.185.539.196 1.122.032 1.667z" fill="#ff5a50"/><g fill="#fff"><path d="M51.118 32.8c-.705 2.19-2.111 3.611-4.416 4.075a7.1 7.1 0 0 1-4.032-.262 3.118 3.118 0 0 1-2.004-2.835c-.095-1.652.567-3.078 1.335-4.472.32-.578.654-1.152.919-1.758.114-.303.157-.628.127-.95a.713.713 0 0 0-.979-.555 7.01 7.01 0 0 0-1.584 1.014c-1.928 1.77-3.477 3.861-4.97 6.004a66.118 66.118 0 0 0-4.348 7.08c-.424.809-.74 1.68-1.22 2.448a3.638 3.638 0 0 1-3.287 1.794 4.666 4.666 0 0 1-2.202-.443 2.447 2.447 0 0 1-1.14-1.327c-.789.44-1.569.927-2.393 1.315a12.539 12.539 0 0 1-4.102 1.263 18.68 18.68 0 0 1-2.935.15 8.503 8.503 0 0 1-4.99-1.845 7.74 7.74 0 0 1-2.693-4.534 11.472 11.472 0 0 1-.11-3.996 17.57 17.57 0 0 1 2.003-5.929 25.562 25.562 0 0 1 2.875-4.344 17.39 17.39 0 0 1 4.016-3.58 10.287 10.287 0 0 1 3.683-1.481c1.699-.317 3.164.269 4.527 1.211a8.08 8.08 0 0 1 2.348 2.456c.55.995.696 2.163.408 3.263a16.058 16.058 0 0 1-1.287 3.465c-.515 1.14-1.026 2.281-1.553 3.418a.99.99 0 0 1-1.259.606 4.41 4.41 0 0 1-2.97-3.232 5.895 5.895 0 0 1 .507-3.148c.471-1.216 1.014-2.404 1.536-3.596a.689.689 0 0 0-.265-.962c-.6.14-1.144.457-1.56.91a32.876 32.876 0 0 0-2.1 2.294 27.973 27.973 0 0 0-3.405 5.429 9.835 9.835 0 0 0-1.061 3.572 9.119 9.119 0 0 0 .09 2.88 2.666 2.666 0 0 0 2.515 2.225c2.343.13 4.669-.471 6.654-1.723a24.523 24.523 0 0 0 2.178-1.679c.127-.12.222-.27.277-.436.701-1.873 1.358-3.762 2.103-5.615.547-1.374 1.196-2.709 1.806-4.055a21.946 21.946 0 0 1 2.099-3.77c.927-1.304 2.095-2.29 3.723-2.5 1.31-.17 2.518.27 3.144 1.75.55 1.304.234 2.555-.19 3.807-.111.32-.218.641-.357 1.053.765-.832 1.414-1.624 2.147-2.32A15.148 15.148 0 0 1 42.78 22a7.452 7.452 0 0 1 3.477-.788c1.493.067 2.887.443 3.933 1.627.455.535.755 1.184.867 1.878.246 1.287-.182 2.443-.657 3.6-.353.855-.713 1.71-.978 2.593-.214.717.166 1.224.926 1.418.169.044.341.072.515.083.281.012.321.17.254.389zM113.271 22.396c-.624-1.4-3.706-1.548-4.978-1.114a7.122 7.122 0 0 0-1.431.729c-2.127 1.316-2.883 3.005-3.881 5.212-.99 2.178-1.901 4.396-2.962 6.538a32.656 32.656 0 0 1-2.4 3.968 3.643 3.643 0 0 1-2.261 1.632c-.559.111-.789-.138-.987-.626a4.612 4.612 0 0 1-.328-1.402c-.08-1.383.099-2.769.526-4.087.63-2.11 1.307-4.205 1.945-6.312.336-.915.5-1.885.483-2.86a2.2 2.2 0 0 0-.851-1.766 3.762 3.762 0 0 0-3.917-.32c-1.315.625-2.174 1.742-2.804 3.01-.891 1.781-1.695 3.607-2.566 5.397-.598 1.24-1.244 2.46-1.87 3.683a28.883 28.883 0 0 1-2.847 4.784c-.174.222-.483.53-.681.495-.238-.035-.428-.396-.63-.622a.345.345 0 0 1-.071-.142 7.546 7.546 0 0 1-.155-3.35c.202-1.26.456-2.515.745-3.759.57-2.483 1.22-4.95 1.754-7.445a2.571 2.571 0 0 0-.887-2.721 3.548 3.548 0 0 0-2.792-.586c-1.319.206-2.289 1.006-3.061 2.075a12.046 12.046 0 0 0-1.972 4.388c-.305 1.307-.507 2.638-.725 3.968-.099.614-.103 1.24-.178 1.862a.858.858 0 0 1-.21.463 51.811 51.811 0 0 1-1.612 1.616 13.748 13.748 0 0 1-3.54 2.471 6.701 6.701 0 0 1-5.568.349 3.678 3.678 0 0 1-2.305-2.705c.772 0 1.517.008 2.262 0a10.732 10.732 0 0 0 5.037-1.32 7.733 7.733 0 0 0 3.382-3.381 7.338 7.338 0 0 0 .566-5.271 5.52 5.52 0 0 0-3.25-3.75 7.408 7.408 0 0 0-2.844-.706 14.215 14.215 0 0 0-2.725.028 10.183 10.183 0 0 0-5.089 2.57 16.553 16.553 0 0 0-3.671 4.78 17.234 17.234 0 0 0-1.933 6.452c-.126 1.29-.02 2.592.313 3.845a7.12 7.12 0 0 0 2.895 4.214c1.51.98 3.26 1.53 5.061 1.588 1.255.037 2.511-.014 3.758-.155a10.98 10.98 0 0 0 3.58-1.045 15.702 15.702 0 0 0 4.92-3.533c.435-.455.85-.934 1.223-1.35.356.867.677 1.766 1.085 2.622a4.957 4.957 0 0 0 2.483 2.506c1.072.468 2.202.792 3.359.963a1.872 1.872 0 0 0 1.718-.416c.765-.752 1.56-1.477 2.305-2.25.417-.46.81-.943 1.176-1.445.543-.693 1.078-1.398 1.644-2.135.063.36.107.666.174.967.353 1.532 1.006 2.863 2.372 3.762.928.57 1.94.99 2.998 1.244a7.377 7.377 0 0 0 5.331-.448 13.85 13.85 0 0 0 4.693-3.83 42.006 42.006 0 0 0 2.832-3.742 130.158 130.158 0 0 0 3.79-6.241 191.71 191.71 0 0 0 1.811-3.244c.487-.886 1.789-2.449 1.868-3.445a1.325 1.325 0 0 0-.107-.657zm-52.486 7.757a9.411 9.411 0 0 1 1.814-3.03 3.48 3.48 0 0 1 1.873-1.203 1.474 1.474 0 0 1 1.655 1.861c-.566 2.408-2.162 3.77-4.483 4.364-.506.086-1.019.134-1.532.147.245-.792.435-1.473.673-2.139z"/></g></svg>