<svg xmlns="http://www.w3.org/2000/svg" width="1048" height="299" viewBox="0 0 1048 299" fill="none"><path d="M270.429 118.194L238.519 292.414L238.419 292.434L270.429 118.194Z" fill="white"></path><path d="M365.469 275.284L349.919 259.074C361.489 253.264 374.589 244.504 381.029 232.794" fill="white"></path><path d="M278.439 167.105C279.779 162.685 282.209 157.035 286.749 151.645C300.869 134.905 323.209 135.265 326.909 135.385C321.219 135.965 309.539 137.925 297.649 146.085C287.029 153.375 281.199 162.195 278.439 167.095V167.105Z" fill="white"></path><path d="M270.679 118.195L238.589 292.085L238.689 292.075L238.589 292.605L220.899 282.735L254.419 109.005L336.699 97.9045L348.219 106.985L270.679 118.195Z" fill="white"></path><path d="M323.619 268.095C321.769 268.075 319.889 267.955 317.989 267.735C287.919 264.305 272.279 238.315 270.429 235.115C274.359 238.175 281.799 243.055 292.289 244.885C296.379 245.605 308.899 247.605 321.849 240.725C323.759 239.705 331.749 235.275 337.929 225.935C349.739 208.085 350.489 178.975 334.709 165.165C329.429 160.555 323.819 158.975 320.559 158.095C299.929 152.525 282.129 164.495 278.439 167.095C278.439 167.095 282.619 142.015 317.339 136.555C328.589 134.785 337.759 135.215 345.049 136.595L342.239 125.065L275.139 135.365L257.849 186.815L254.409 245.295L278.429 268.105L316.779 275.205L323.159 271.025L322.829 273.155L323.609 268.105L323.619 268.095Z" fill="white"></path><path d="M317.989 267.734C308.219 266.624 299.979 263.124 293.239 258.794C272.749 250.664 259.829 234.604 259.829 207.954C259.829 171.154 288.079 134.884 324.899 134.884C326.819 134.884 328.699 135.074 330.549 135.404C345.989 135.194 356.199 139.344 361.829 142.634L348.229 106.974L270.429 118.174L238.519 292.404L321.509 281.814L323.629 268.085C321.779 268.065 319.899 267.944 317.999 267.724L317.989 267.734Z" fill="white"></path><path d="M440.259 83.5045L383.019 90.2145L372.229 151.745C376.889 157.035 383.439 165.795 385.969 175.525L396.949 99.7145L454.709 93.2345L440.269 83.5045H440.259Z" fill="white"></path><path d="M396.949 99.7245L385.969 175.535C386.159 176.255 386.329 176.985 386.469 177.715C388.159 186.505 389.849 193.695 389.529 202.185C389.449 204.225 388.669 217.765 382.289 230.445C380.359 234.285 377.809 238.235 374.729 242.065L365.469 275.285L367.019 275.055L426.399 265.925L454.699 93.2545L396.939 99.7345L396.949 99.7245Z" fill="white"></path><path d="M226.089 203.245L236.899 147.175V111.615C236.899 104.285 238.359 96.9846 241.509 90.4146C244.019 85.1846 247.769 79.5746 253.339 75.4346C259.769 70.6646 265.959 69.7746 269.469 69.6546C272.039 69.7246 282.839 70.3946 291.779 81.4146C294.039 84.2046 295.779 87.1546 297.119 90.0146C297.579 90.9846 297.979 91.9846 298.359 92.9846L346.009 85.6446C345.519 80.4746 344.499 75.3746 342.939 70.4246C339.519 59.5646 333.289 44.9146 321.979 31.8346C314.469 23.1446 306.679 17.4146 299.799 13.6246C289.679 8.04458 278.249 5.63457 266.779 6.04457C259.619 6.30457 250.939 7.45458 243.319 10.8446C219.349 21.4746 207.449 44.8046 204.169 51.3246C197.039 65.5046 193.279 80.9846 192.649 89.5746C192.569 90.6846 192.159 96.8946 191.889 104.945C191.739 109.305 191.669 112.885 191.639 115.235V115.335C192.429 130.625 196.329 192.685 226.079 203.255L226.089 203.245Z" fill="white"></path><path d="M211.369 235.144L222.449 202.604C197.169 172.024 192.589 130.884 191.779 115.324C191.549 126.644 191.529 139.564 191.799 156.644C192.069 172.954 192.199 181.104 192.529 183.864C195.159 206.924 202.719 221.954 204.519 225.374C205.459 227.224 206.249 228.514 211.379 235.144H211.369Z" fill="white"></path><path d="M187.259 191.325C185.679 205.655 180.369 218.455 179.799 219.805C174.859 231.385 168.559 239.895 163.179 246.615C163.109 246.705 163.039 246.795 162.959 246.885C160.629 249.765 156.379 246.355 158.449 243.275C164.329 234.505 169.609 223.665 172.399 210.725C174.079 202.925 177.629 185.385 170.829 165.395C169.929 162.785 166.399 151.345 156.499 140.215C132.639 113.425 106.819 109.195 80.2591 108.375C56.4391 107.605 23.3691 120.585 16.7591 123.275L16.6991 123.255C16.6991 123.255 49.1391 31.6145 52.4791 20.5645C52.8591 19.3045 53.8791 15.5145 57.1291 12.5645C61.1991 8.86452 66.7091 8.34452 70.9191 8.57452C71.8191 8.62452 72.7291 8.66452 73.6391 8.65452C127.599 8.03452 166.859 7.84452 173.439 8.01452C174.529 8.04452 177.169 8.17452 179.739 9.86452C182.709 11.8245 184.189 15.1045 184.979 18.0245C185.079 18.4045 185.099 18.7945 185.059 19.1845C184.009 28.0945 181.979 37.6045 178.509 47.3945C178.109 48.5345 177.689 49.6745 177.269 50.7745C176.869 51.5445 175.839 53.3145 173.739 54.5845C171.699 55.8245 169.749 55.9445 168.909 55.9445H91.7291C90.5191 55.9445 89.4391 56.7345 89.0291 57.9045L82.4791 76.8845C81.7891 78.8945 83.3291 81.0045 85.3891 80.8045C95.9291 79.7845 108.069 82.2245 108.069 82.2245C125.989 85.5245 138.259 92.7445 145.019 97.4745C176.929 119.845 190.729 160.295 187.269 191.315L187.259 191.325Z" fill="white"></path><path d="M172.399 210.724C165.129 244.454 140.949 263.934 133.219 269.674C129.669 271.344 125.809 272.894 121.669 274.314C91.5691 284.594 66.0791 275.784 58.3291 273.014C58.3291 273.014 29.8591 262.874 12.1791 235.664C11.6291 234.814 10.2091 232.614 10.5591 229.984C10.9591 227.034 13.2491 225.344 13.2491 225.344C13.2491 225.344 38.8991 212.684 44.0191 209.994C49.1491 207.304 51.6491 210.604 51.6491 210.604C53.8291 213.374 57.0891 217.014 61.6491 220.514C65.1791 223.224 73.7891 229.674 86.1691 231.144C102.949 233.134 115.309 224.224 119.399 222.044C123.369 219.904 133.919 211.764 138.849 197.274C139.579 195.194 142.039 187.584 141.349 177.654C140.009 158.274 127.779 145.614 124.899 142.624C123.579 141.284 122.459 140.244 121.729 139.594C118.279 137.034 112.759 133.564 105.299 131.294C98.2391 129.154 92.0891 128.914 87.9491 129.074C83.6891 129.524 77.2791 130.744 70.2391 134.244C63.9991 137.334 59.4891 141.124 56.5791 143.974L16.7691 123.254C23.3691 120.564 56.4491 107.584 80.2691 108.354C106.839 109.184 132.659 113.404 156.509 140.194C166.409 151.324 169.949 162.764 170.839 165.374C177.629 185.364 174.079 202.904 172.409 210.704L172.399 210.724Z" fill="white"></path><path d="M10.0591 227.425C12.2791 230.945 14.7291 234.325 17.4091 237.515C17.4391 237.555 17.4391 237.605 17.3991 237.645C17.3591 237.685 17.3091 237.675 17.2691 237.635C14.6291 234.405 12.2291 230.985 10.0491 227.435L10.0591 227.425Z" fill="url(#paint0_linear_18_589)"></path><path d="M36.5691 254.445C43.7591 259.075 51.6891 262.525 59.9491 264.715C60.0991 264.755 60.1891 264.905 60.1491 265.055C60.1091 265.205 59.9591 265.295 59.8091 265.255C51.5091 263.005 43.5491 259.495 36.3391 254.805C36.2391 254.735 36.2091 254.605 36.2791 254.505C36.3491 254.405 36.4791 254.375 36.5791 254.445H36.5691Z" fill="url(#paint1_linear_18_589)"></path><path d="M85.329 267.375C93.869 266.975 102.319 265.425 110.539 263.075C110.719 263.025 110.909 263.125 110.969 263.315C111.019 263.495 110.919 263.685 110.739 263.745C106.609 264.955 102.429 265.955 98.1891 266.695C93.9491 267.425 89.669 267.895 85.369 268.065C85.179 268.065 85.019 267.925 85.009 267.735C85.009 267.545 85.1491 267.385 85.3391 267.375H85.329Z" fill="url(#paint2_linear_18_589)"></path><path d="M134.509 253.965C142.269 250.365 149.809 246.265 157.269 242.055C157.369 241.995 157.509 242.035 157.569 242.135C157.629 242.235 157.589 242.375 157.489 242.435C150.049 246.695 142.529 250.825 134.759 254.475C134.619 254.545 134.449 254.475 134.389 254.345C134.329 254.215 134.389 254.035 134.519 253.975L134.509 253.965Z" fill="url(#paint3_linear_18_589)"></path><path d="M179.319 228.854C182.829 226.614 186.389 224.444 190.069 222.484C186.419 224.494 182.899 226.714 179.419 229.004C179.379 229.034 179.319 229.024 179.299 228.974C179.269 228.934 179.279 228.874 179.329 228.854H179.319Z" fill="url(#paint4_linear_18_589)"></path><path d="M274.899 116.724L242.989 290.944L242.889 290.964L274.899 116.724Z" fill="white"></path><path d="M377.859 155.895C379.229 157.645 380.379 159.335 381.319 160.885L377.859 155.895Z" fill="white"></path><path d="M384.839 167.534C384.869 167.614 384.919 167.704 384.959 167.804C384.789 167.434 384.639 167.084 384.459 166.734C384.589 167.004 384.729 167.264 384.839 167.534Z" fill="white"></path><path d="M387.399 174.164C387.249 173.684 387.079 173.194 386.919 172.714Z" fill="white"></path><path d="M386.529 171.654L386.229 170.854Z" fill="white"></path><path d="M228.919 194.564C145.609 213.394 113.699 259.094 59.2191 253.154C47.7891 251.904 30.8091 247.254 11.3691 229.744C9.02908 227.634 5.34906 229.824 6.09906 232.884C7.95906 240.504 11.8191 250.554 20.0491 260.464C20.7391 261.304 21.7991 262.554 23.2291 264.084C35.5391 277.234 50.4291 282.594 56.6091 284.834C80.1491 293.394 103.999 290.454 113.189 289.254C146.199 284.964 170.149 270.354 192.019 257.024C195.799 254.714 199.919 251.924 199.919 251.924C205.909 247.994 210.189 245.044 210.669 244.724C213.449 242.834 216.819 241.024 220.309 239.324L228.939 194.564H228.919Z" fill="white"></path><path d="M10.0591 233.425C12.7291 237.655 15.7291 241.665 19.0591 245.395C19.0991 245.445 19.0991 245.515 19.0591 245.565C19.0191 245.615 18.9391 245.605 18.8891 245.565C15.6191 241.775 12.6691 237.705 10.0691 233.445L10.0591 233.425Z" fill="black"></path><path d="M42.159 263.645C50.859 268.275 60.389 271.305 70.139 272.625C70.369 272.655 70.539 272.875 70.509 273.105C70.479 273.335 70.259 273.505 70.029 273.475C65.099 272.815 60.249 271.635 55.529 270.095C50.809 268.535 46.229 266.575 41.869 264.195C41.719 264.115 41.669 263.925 41.749 263.775C41.829 263.625 42.019 263.575 42.159 263.655V263.645Z" fill="black"></path><path d="M99.5191 271.595C109.209 269.765 118.589 266.585 127.669 262.745C127.919 262.645 128.199 262.755 128.309 263.005C128.419 263.255 128.299 263.535 128.049 263.645C123.489 265.585 118.859 267.375 114.119 268.875C109.389 270.375 104.569 271.615 99.6891 272.535C99.4291 272.585 99.1891 272.415 99.1391 272.155C99.0891 271.895 99.2591 271.655 99.5191 271.605V271.595Z" fill="black"></path><path d="M154.159 249.545C162.769 244.695 171.289 239.685 179.619 234.355C179.779 234.255 179.999 234.295 180.109 234.465C180.209 234.625 180.159 234.845 179.999 234.955C171.719 240.375 163.219 245.455 154.599 250.325C154.389 250.445 154.119 250.365 153.999 250.155C153.879 249.945 153.959 249.675 154.169 249.555L154.159 249.545Z" fill="black"></path><path d="M205.869 220.535C210.559 218.775 215.339 217.295 220.139 215.905C215.359 217.385 210.619 218.965 205.979 220.815C205.899 220.845 205.809 220.815 205.779 220.725C205.749 220.635 205.779 220.555 205.869 220.525V220.535Z" fill="black"></path><path d="M489.952 120.004H509.715L508.4 126.378H481L489.672 84.7775H515.946L514.597 91.1516H495.995L493.742 101.91H509.715L508.4 108.284H492.428L489.952 120.004Z" fill="white"></path><path d="M533.713 99.4865H533.839L546.896 84.7775H556.26L537.252 105.889L547.085 126.378H538.881L531.741 110.954H531.615L518.055 126.378H508.72L528.168 104.614L518.679 84.7775H526.853L533.713 99.4865Z" fill="white"></path><path d="M557.312 126.378H549.669L558.341 84.7775H568.831C572.776 84.7775 575.817 85.1319 577.943 85.8351C580.447 86.664 582.265 87.9159 583.391 89.5966C584.518 91.2773 585.084 93.2324 585.084 95.4734C585.084 97.7143 584.649 99.6465 583.786 101.459C582.917 103.271 581.654 104.832 579.996 106.141C578.338 107.444 576.286 108.462 573.845 109.188C571.404 109.914 568.591 110.274 565.418 110.274C563.812 110.274 562.257 110.171 560.753 109.965L557.306 126.383L557.312 126.378ZM562.074 103.62C563.137 103.808 564.372 103.9 565.767 103.9C567.728 103.9 569.443 103.705 570.9 103.311C572.364 102.916 573.57 102.368 574.531 101.665C575.491 100.961 576.211 100.104 576.691 99.0977C577.172 98.0916 577.412 96.9883 577.412 95.7878C577.412 94.816 577.149 93.9927 576.629 93.3296C576.108 92.6665 575.405 92.1577 574.531 91.8033C573.987 91.5746 573.301 91.4088 572.461 91.3059C571.626 91.203 570.58 91.1516 569.328 91.1516H564.664L562.062 103.62H562.074Z" fill="white"></path><path d="M591.458 126.378H583.814L592.487 84.7775H603.823C605.641 84.7775 607.201 84.8404 608.505 84.9661C609.808 85.0919 610.952 85.2977 611.935 85.5892C614.69 86.3781 616.708 87.6187 617.994 89.3222C619.281 91.0201 619.921 93.0209 619.921 95.3247C619.921 97.0054 619.687 98.5775 619.218 100.052C618.749 101.522 618.006 102.854 616.994 104.031C615.982 105.215 614.685 106.238 613.112 107.107C611.535 107.976 609.642 108.662 607.43 109.159V109.285L616.731 126.383H608.276L599.884 110.28H594.813L591.463 126.383L591.458 126.378ZM596.157 103.9H599.101C600.501 103.9 601.753 103.854 602.857 103.763C603.966 103.671 604.955 103.5 605.829 103.248C607.813 102.711 609.379 101.836 610.528 100.618C611.678 99.4064 612.249 97.8344 612.249 95.9078C612.249 94.9131 612.021 94.0442 611.557 93.2953C611.1 92.5464 610.346 91.9976 609.305 91.6489C608.802 91.4831 608.156 91.3574 607.361 91.2773C606.567 91.1973 605.578 91.1516 604.389 91.1516H598.815L596.151 103.9H596.157Z" fill="white"></path><path d="M627.61 120.004H647.372L646.058 126.378H618.658L627.33 84.7775H653.604L652.254 91.1516H633.652L631.4 101.91H647.372L646.058 108.284H630.085L627.61 120.004Z" fill="white"></path><path d="M672.72 113.384C672.72 112.429 672.463 111.652 671.954 111.051C671.445 110.451 670.777 109.954 669.948 109.559C669.119 109.165 668.175 108.816 667.095 108.519C666.02 108.216 664.917 107.901 663.791 107.57C662.476 107.153 661.247 106.667 660.109 106.106C658.972 105.546 657.983 104.86 657.148 104.037C656.313 103.219 655.656 102.23 655.176 101.07C654.696 99.9095 654.455 98.5604 654.455 97.0283C654.455 95.0789 654.816 93.301 655.536 91.6946C656.256 90.0883 657.279 88.7163 658.606 87.5729C659.932 86.4296 661.533 85.5492 663.413 84.9318C665.294 84.3087 667.392 84 669.708 84C672.171 84 674.612 84.263 677.036 84.7946C679.46 85.3205 681.587 85.9837 683.428 86.7669L682.078 93.0781C679.717 92.1463 677.614 91.4717 675.767 91.0544C673.921 90.6371 672.069 90.4313 670.211 90.4313C667.724 90.4313 665.786 90.9515 664.385 91.9862C662.985 93.0209 662.287 94.4101 662.287 96.1536C662.287 97.0855 662.476 97.8801 662.853 98.5318C663.231 99.1835 663.728 99.7323 664.357 100.178C664.986 100.624 665.717 101.007 666.563 101.327C667.409 101.647 668.301 101.956 669.239 102.242C670.594 102.659 671.954 103.099 673.309 103.58C674.664 104.054 675.887 104.671 676.973 105.432C678.06 106.186 678.934 107.158 679.603 108.342C680.272 109.525 680.604 110.983 680.604 112.726C680.604 114.984 680.169 117.008 679.306 118.792C678.437 120.575 677.208 122.09 675.613 123.331C674.018 124.577 672.08 125.52 669.805 126.178C667.529 126.829 664.991 127.155 662.196 127.155C660.732 127.155 659.332 127.064 657.983 126.875C656.633 126.686 655.404 126.458 654.29 126.178C653.175 125.898 652.186 125.589 651.328 125.246C650.471 124.903 649.796 124.577 649.293 124.268L650.608 117.986C652.197 118.752 653.981 119.398 655.965 119.929C657.948 120.455 660.046 120.724 662.259 120.724C663.848 120.724 665.283 120.558 666.563 120.227C667.85 119.895 668.941 119.421 669.85 118.815C670.759 118.203 671.463 117.437 671.966 116.516C672.469 115.596 672.715 114.55 672.715 113.389L672.72 113.384Z" fill="white"></path><path d="M705.368 113.384C705.368 112.429 705.111 111.652 704.602 111.051C704.093 110.451 703.425 109.954 702.596 109.559C701.767 109.165 700.823 108.816 699.743 108.519C698.668 108.216 697.565 107.901 696.439 107.57C695.124 107.153 693.895 106.667 692.757 106.106C691.62 105.546 690.631 104.86 689.796 104.037C688.961 103.219 688.304 102.23 687.824 101.07C687.343 99.9095 687.103 98.5604 687.103 97.0283C687.103 95.0789 687.464 93.301 688.184 91.6946C688.904 90.0883 689.927 88.7163 691.254 87.5729C692.58 86.4296 694.181 85.5492 696.061 84.9318C697.942 84.3087 700.04 84 702.355 84C704.819 84 707.26 84.263 709.684 84.7946C712.108 85.3205 714.235 85.9837 716.076 86.7669L714.726 93.0781C712.365 92.1463 710.262 91.4717 708.415 91.0544C706.569 90.6371 704.716 90.4313 702.859 90.4313C700.372 90.4313 698.434 90.9515 697.033 91.9862C695.633 93.0209 694.935 94.4101 694.935 96.1536C694.935 97.0855 695.124 97.8801 695.501 98.5318C695.878 99.1835 696.376 99.7323 697.005 100.178C697.633 100.624 698.365 101.007 699.211 101.327C700.057 101.647 700.949 101.956 701.887 102.242C703.242 102.659 704.602 103.099 705.957 103.58C707.312 104.054 708.535 104.671 709.621 105.432C710.708 106.186 711.582 107.158 712.251 108.342C712.92 109.525 713.251 110.983 713.251 112.726C713.251 114.984 712.817 117.008 711.954 118.792C711.085 120.575 709.856 122.09 708.261 123.331C706.666 124.577 704.728 125.52 702.453 126.178C700.177 126.829 697.639 127.155 694.844 127.155C693.38 127.155 691.98 127.064 690.631 126.875C689.281 126.686 688.052 126.458 686.938 126.178C685.823 125.898 684.834 125.589 683.976 125.246C683.119 124.903 682.444 124.577 681.941 124.268L683.256 117.986C684.845 118.752 686.629 119.398 688.613 119.929C690.596 120.455 692.694 120.724 694.907 120.724C696.496 120.724 697.931 120.558 699.211 120.227C700.498 119.895 701.589 119.421 702.498 118.815C703.407 118.203 704.111 117.437 704.614 116.516C705.117 115.596 705.362 114.55 705.362 113.389L705.368 113.384Z" fill="white"></path><path d="M741.303 84C743.744 84 745.962 84.3373 747.957 85.0118C749.953 85.6864 751.656 86.6925 753.08 88.0303C754.497 89.368 755.595 91.0258 756.367 93.0038C757.138 94.9817 757.527 97.2684 757.527 99.8581C757.527 101.476 757.356 103.265 757.013 105.237C756.67 107.204 756.109 109.199 755.338 111.223C754.566 113.247 753.565 115.213 752.331 117.128C751.102 119.043 749.598 120.747 747.837 122.227C746.077 123.708 744.024 124.903 741.686 125.8C739.348 126.704 736.684 127.155 733.7 127.155C731.259 127.155 729.041 126.818 727.046 126.143C725.051 125.469 723.347 124.463 721.924 123.125C720.506 121.787 719.408 120.129 718.637 118.151C717.865 116.173 717.476 113.887 717.476 111.297C717.476 109.679 717.648 107.89 717.991 105.918C718.334 103.951 718.894 101.956 719.666 99.9324C720.437 97.9087 721.438 95.9421 722.673 94.027C723.902 92.112 725.405 90.4084 727.166 88.9278C728.932 87.4472 730.979 86.2524 733.317 85.3548C735.655 84.4516 738.319 84 741.303 84ZM740.772 90.437C739.079 90.437 737.524 90.7285 736.107 91.3059C734.689 91.889 733.397 92.6779 732.237 93.6841C731.076 94.6902 730.053 95.8678 729.167 97.2112C728.281 98.5604 727.537 100.001 726.943 101.533C726.348 103.065 725.897 104.66 725.594 106.306C725.291 107.953 725.142 109.565 725.142 111.143C725.142 112.721 725.354 114.104 725.771 115.293C726.188 116.482 726.789 117.483 727.572 118.294C728.355 119.1 729.31 119.706 730.436 120.112C731.562 120.518 732.825 120.718 734.226 120.718C735.918 120.718 737.473 120.427 738.891 119.849C740.308 119.266 741.6 118.477 742.761 117.471C743.921 116.465 744.945 115.287 745.831 113.944C746.717 112.595 747.46 111.154 748.055 109.622C748.649 108.09 749.101 106.495 749.404 104.849C749.707 103.202 749.855 101.59 749.855 100.012C749.855 96.8625 749.044 94.4787 747.426 92.8608C745.808 91.243 743.59 90.437 740.772 90.437Z" fill="white"></path><path d="M794.314 126.378L785.699 107.941C783.589 103.465 781.909 99.4751 780.657 95.9707H780.468C780.074 99.4122 779.405 103.362 778.462 107.816L774.58 126.378H766.937L775.609 84.7775H783.029L791.644 103.214C793.754 107.673 795.434 111.663 796.686 115.184H796.875C797.144 112.469 797.813 108.519 798.882 103.34L802.763 84.7775H810.406L801.734 126.378H794.314Z" fill="white"></path><path d="M833.319 115.773H818.444L812.653 126.378H804.135L827.499 84.7775H834.639L843.157 126.378H835.325L833.319 115.773ZM821.948 109.399H832.124L831.278 104.923C830.586 101.339 830.037 98.0116 829.62 94.9417H829.431C827.951 98.2174 826.339 101.419 824.607 104.551L821.943 109.399H821.948Z" fill="white"></path><path d="M870.506 90.437C868.711 90.437 867.03 90.6942 865.464 91.2144C863.897 91.7347 862.491 92.4492 861.251 93.3582C860.01 94.2729 858.924 95.3476 857.992 96.5938C857.06 97.8401 856.283 99.1892 855.66 100.653C855.031 102.116 854.562 103.648 854.248 105.255C853.933 106.861 853.779 108.485 853.779 110.12C853.779 112.212 854.065 113.944 854.642 115.31C855.214 116.677 856.003 117.763 857.009 118.557C858.015 119.352 859.187 119.912 860.53 120.238C861.874 120.564 863.314 120.718 864.835 120.718C866.504 120.741 868.225 120.587 869.986 120.267C871.752 119.946 873.519 119.483 875.296 118.883L873.919 125.6C872.227 126.183 870.409 126.584 868.471 126.812C866.533 127.041 864.778 127.155 863.211 127.155C860.685 127.155 858.375 126.841 856.277 126.206C854.179 125.572 852.378 124.594 850.875 123.268C849.371 121.942 848.205 120.244 847.365 118.169C846.524 116.093 846.113 113.63 846.113 110.771C846.113 108.742 846.319 106.667 846.724 104.551C847.13 102.436 847.759 100.39 848.605 98.4117C849.451 96.4338 850.515 94.5644 851.801 92.8151C853.087 91.0658 854.613 89.5337 856.391 88.2303C858.164 86.9269 860.222 85.8922 862.56 85.1376C864.898 84.383 867.425 84 870.14 84C871.621 84 873.318 84.1372 875.228 84.4059C877.137 84.6746 878.921 85.0804 880.567 85.6178L879.281 91.8376C877.715 91.3802 876.245 91.0315 874.868 90.7971C873.49 90.557 872.038 90.437 870.517 90.437H870.506Z" fill="white"></path><path d="M877.72 126.378L886.392 84.7775H894.036L885.363 126.378H877.72Z" fill="white"></path><path d="M917.383 84C919.824 84 922.042 84.3373 924.037 85.0118C926.032 85.6864 927.736 86.6925 929.159 88.0303C930.577 89.368 931.674 91.0258 932.446 93.0038C933.218 94.9817 933.607 97.2684 933.607 99.8581C933.607 101.476 933.435 103.265 933.092 105.237C932.749 107.21 932.189 109.199 931.417 111.223C930.645 113.247 929.645 115.213 928.41 117.128C927.181 119.043 925.677 120.747 923.917 122.227C922.15 123.708 920.104 124.903 917.766 125.8C915.428 126.704 912.764 127.155 909.779 127.155C907.338 127.155 905.12 126.818 903.125 126.143C901.13 125.469 899.427 124.463 898.003 123.125C896.585 121.787 895.488 120.129 894.716 118.151C893.944 116.173 893.555 113.887 893.555 111.297C893.555 109.679 893.727 107.89 894.07 105.918C894.413 103.951 894.973 101.956 895.745 99.9324C896.517 97.9087 897.517 95.9421 898.752 94.027C899.981 92.112 901.485 90.4084 903.245 88.9278C905.006 87.4472 907.058 86.2524 909.396 85.3548C911.735 84.4573 914.398 84 917.383 84ZM916.851 90.437C915.159 90.437 913.604 90.7285 912.186 91.3059C910.768 91.889 909.476 92.6779 908.316 93.6841C907.155 94.6902 906.132 95.8678 905.246 97.2112C904.36 98.5604 903.617 100.001 903.022 101.533C902.428 103.065 901.976 104.66 901.673 106.306C901.37 107.953 901.222 109.565 901.222 111.143C901.222 112.721 901.433 114.104 901.85 115.293C902.268 116.482 902.868 117.483 903.651 118.294C904.434 119.1 905.389 119.706 906.515 120.112C907.641 120.518 908.905 120.718 910.305 120.718C911.997 120.718 913.552 120.427 914.97 119.849C916.388 119.266 917.68 118.477 918.84 117.471C920.001 116.465 921.024 115.287 921.91 113.944C922.796 112.595 923.539 111.154 924.134 109.622C924.729 108.09 925.18 106.495 925.483 104.849C925.786 103.202 925.935 101.59 925.935 100.012C925.935 96.8625 925.123 94.4787 923.505 92.8608C921.887 91.243 919.669 90.437 916.851 90.437Z" fill="white"></path><path d="M960.646 126.378L952.031 107.941C949.922 103.465 948.241 99.4751 946.989 95.9707H946.801C946.406 99.4122 945.737 103.362 944.794 107.816L940.912 126.378H933.269L941.941 84.7775H949.362L957.977 103.214C960.086 107.673 961.767 111.663 963.019 115.184H963.207C963.476 112.469 964.145 108.519 965.214 103.34L969.096 84.7775H976.739L968.067 126.378H960.646Z" fill="white"></path><path d="M999.646 115.773H984.771L978.98 126.378H970.462L993.826 84.7775H1000.97L1009.48 126.378H1001.65L999.646 115.773ZM988.275 109.399H998.451L997.605 104.923C996.913 101.339 996.364 98.0116 995.947 94.9417H995.758C994.278 98.2174 992.665 101.419 990.933 104.551L988.269 109.399H988.275Z" fill="white"></path><path d="M1021.24 120.004H1041L1039.69 126.378H1012.29L1020.96 84.7775H1028.6L1021.24 120.004H1021.24Z" fill="white"></path><path d="M660.422 160.764H670.183L669.533 163.98H656L660.284 142.99H673.262L672.593 146.206H663.407L662.295 151.633H670.183L669.533 154.849H661.646L660.422 160.764Z" fill="white"></path><path d="M681.436 150.409H681.499L687.95 142.99H692.578L683.191 153.644L688.05 163.98H683.997L680.468 156.198H680.406L673.711 163.98H669.102L678.707 153.001L674.023 142.99H678.058L681.443 150.409H681.436Z" fill="white"></path><path d="M701.302 145.844C700.415 145.844 699.585 145.975 698.81 146.237C698.036 146.5 697.343 146.862 696.731 147.318C696.119 147.78 695.582 148.323 695.12 148.948C694.657 149.572 694.276 150.259 693.964 150.996C693.652 151.733 693.421 152.507 693.271 153.319C693.115 154.131 693.04 154.949 693.04 155.774C693.04 156.829 693.184 157.703 693.465 158.397C693.746 159.09 694.139 159.633 694.632 160.039C695.126 160.439 695.707 160.726 696.375 160.888C697.043 161.051 697.749 161.132 698.504 161.132C699.329 161.144 700.178 161.063 701.046 160.901C701.92 160.739 702.795 160.507 703.669 160.201L702.988 163.593C702.152 163.886 701.259 164.086 700.297 164.205C699.335 164.317 698.473 164.379 697.699 164.379C696.45 164.379 695.307 164.217 694.27 163.899C693.233 163.58 692.347 163.087 691.604 162.418C690.86 161.75 690.286 160.888 689.874 159.845C689.461 158.803 689.255 157.554 689.255 156.111C689.255 155.087 689.355 154.038 689.555 152.976C689.755 151.908 690.067 150.877 690.486 149.878C690.904 148.879 691.429 147.936 692.066 147.055C692.696 146.169 693.452 145.4 694.333 144.739C695.207 144.077 696.225 143.558 697.38 143.177C698.536 142.796 699.785 142.603 701.121 142.603C701.852 142.603 702.689 142.671 703.638 142.809C704.581 142.946 705.461 143.146 706.273 143.421L705.636 146.556C704.862 146.325 704.138 146.15 703.457 146.031C702.776 145.913 702.058 145.85 701.308 145.85L701.302 145.844Z" fill="white"></path><path d="M708.69 160.764H718.451L717.802 163.98H704.269L708.553 142.99H721.53L720.862 146.206H711.675L710.564 151.633H718.451L717.802 154.849H709.914L708.69 160.764Z" fill="white"></path><path d="M723.641 160.764H733.402L732.753 163.98H719.219L723.504 142.99H727.276L723.641 160.764Z" fill="white"></path><path d="M738.373 160.764H748.134L747.485 163.98H733.952L738.236 142.99H751.213L750.545 146.206H741.359L740.247 151.633H748.134L747.485 154.849H739.597L738.373 160.764ZM743.944 138H747.129L749.683 141.872H746.592L745.293 139.892H745.23L743.113 141.872H739.816L743.944 138Z" fill="white"></path><path d="M762.417 163.98L758.164 154.675C757.121 152.414 756.291 150.403 755.672 148.635H755.579C755.385 150.372 755.054 152.364 754.586 154.612L752.668 163.98H748.896L753.181 142.99H756.846L761.099 152.295C762.142 154.543 762.973 156.554 763.591 158.334H763.685C763.816 156.966 764.147 154.974 764.678 152.358L766.595 142.99H770.367L766.083 163.98H762.417Z" fill="white"></path><path d="M781.577 145.844C780.69 145.844 779.86 145.975 779.085 146.237C778.311 146.5 777.618 146.862 777.006 147.318C776.394 147.78 775.857 148.323 775.394 148.948C774.932 149.572 774.551 150.259 774.239 150.996C773.927 151.733 773.696 152.507 773.546 153.319C773.39 154.131 773.315 154.949 773.315 155.774C773.315 156.829 773.458 157.703 773.739 158.397C774.021 159.09 774.414 159.633 774.907 160.039C775.401 160.439 775.981 160.726 776.65 160.888C777.318 161.051 778.024 161.132 778.779 161.132C779.604 161.144 780.453 161.063 781.321 160.901C782.195 160.739 783.07 160.507 783.944 160.201L783.263 163.593C782.426 163.886 781.533 164.086 780.572 164.205C779.61 164.317 778.748 164.379 777.974 164.379C776.725 164.379 775.582 164.217 774.545 163.899C773.508 163.58 772.622 163.087 771.878 162.418C771.135 161.75 770.561 160.888 770.149 159.845C769.736 158.803 769.53 157.554 769.53 156.111C769.53 155.087 769.63 154.038 769.83 152.976C770.03 151.908 770.342 150.877 770.761 149.878C771.179 148.879 771.704 147.936 772.341 147.055C772.971 146.169 773.727 145.4 774.608 144.739C775.488 144.077 776.5 143.558 777.655 143.177C778.811 142.796 780.06 142.603 781.396 142.603C782.127 142.603 782.964 142.671 783.913 142.809C784.856 142.946 785.736 143.146 786.548 143.421L785.911 146.556C785.137 146.325 784.412 146.15 783.732 146.031C783.051 145.913 782.333 145.85 781.583 145.85L781.577 145.844Z" fill="white"></path><path d="M784.537 163.98L788.822 142.99H792.594L788.309 163.98H784.537Z" fill="white"></path><path d="M803.31 158.628H795.96L793.099 163.98H788.89L800.431 142.99H803.96L808.169 163.98H804.303L803.31 158.628ZM797.696 155.411H802.723L802.305 153.151C801.968 151.34 801.693 149.66 801.487 148.117H801.393C800.662 149.772 799.869 151.383 799.014 152.963L797.696 155.411Z" fill="white"></path><path d="M817.587 160.764H827.348L826.698 163.98H813.165L817.449 142.99H830.427L829.758 146.206H820.572L819.46 151.633H827.348L826.698 154.849H818.811L817.587 160.764Z" fill="white"></path><path d="M839.482 158.315C840.213 156.717 841.793 153.731 844.216 149.36L847.788 142.99H852.909L848.625 163.98H844.853L847.064 153.969C847.432 152.295 847.907 150.309 848.469 148.005H848.344C847.326 150.222 845.34 153.956 842.405 159.208L839.682 163.98H837.159L835.504 152.639C835.279 151.121 835.079 149.578 834.898 148.011H834.773C834.642 149.56 834.374 151.396 833.968 153.519L831.882 163.986H828.11L832.394 142.996H837.265L838.196 148.86C838.577 151.308 838.976 154.462 839.388 158.322H839.482V158.315Z" fill="white"></path><path d="M863.888 163.98H860.116L863.751 146.206H857.256L857.893 142.99H874.673L874.024 146.206H867.529L863.894 163.98H863.888Z" fill="white"></path><path d="M874.898 163.98H871.126L875.41 142.99H881.012C881.911 142.99 882.68 143.021 883.323 143.084C883.966 143.146 884.528 143.252 885.015 143.396C886.377 143.795 887.376 144.42 888.007 145.276C888.644 146.131 888.956 147.143 888.956 148.304C888.956 149.154 888.837 149.947 888.606 150.69C888.375 151.433 888.007 152.102 887.507 152.701C887.007 153.294 886.37 153.813 885.59 154.256C884.809 154.693 883.879 155.043 882.786 155.293V155.355L887.382 163.986H883.204L879.057 155.861H876.553L874.898 163.986V163.98ZM877.221 152.639H878.676C879.37 152.639 879.988 152.614 880.531 152.57C881.081 152.52 881.568 152.439 881.999 152.308C882.979 152.033 883.754 151.596 884.322 150.984C884.89 150.372 885.171 149.578 885.171 148.61C885.171 148.111 885.059 147.667 884.834 147.293C884.609 146.918 884.235 146.637 883.723 146.462C883.473 146.381 883.154 146.312 882.761 146.275C882.367 146.237 881.88 146.212 881.293 146.212H878.539L877.221 152.645V152.639Z" fill="white"></path><path d="M900.285 158.628H892.934L890.074 163.98H885.865L897.406 142.99H900.934L905.143 163.98H901.278L900.285 158.628ZM894.67 155.411H899.698L899.279 153.151C898.942 151.34 898.667 149.66 898.461 148.117H898.367C897.637 149.772 896.844 151.383 895.988 152.963L894.67 155.411Z" fill="white"></path><path d="M919.445 163.98L915.192 154.675C914.149 152.414 913.318 150.403 912.7 148.635H912.606C912.413 150.372 912.082 152.364 911.613 154.612L909.696 163.98H905.924L910.208 142.99H913.874L918.127 152.295C919.17 154.543 920.001 156.554 920.619 158.334H920.712C920.844 156.966 921.175 154.974 921.705 152.358L923.623 142.99H927.395L923.111 163.98H919.445Z" fill="white"></path><path d="M936.7 157.422C936.7 156.942 936.575 156.548 936.319 156.248C936.063 155.942 935.738 155.693 935.326 155.493C934.92 155.293 934.446 155.118 933.915 154.968C933.384 154.818 932.841 154.656 932.285 154.487C931.635 154.275 931.029 154.031 930.467 153.75C929.905 153.469 929.418 153.12 929.006 152.707C928.594 152.295 928.269 151.796 928.032 151.209C927.794 150.621 927.676 149.941 927.676 149.166C927.676 148.186 927.851 147.287 928.213 146.475C928.569 145.663 929.075 144.97 929.73 144.395C930.386 143.821 931.173 143.377 932.104 143.059C933.034 142.746 934.071 142.59 935.214 142.59C936.431 142.59 937.637 142.721 938.836 142.99C940.035 143.252 941.084 143.589 941.99 143.983L941.321 147.168C940.154 146.7 939.117 146.356 938.205 146.15C937.293 145.938 936.375 145.838 935.457 145.838C934.227 145.838 933.271 146.1 932.578 146.625C931.885 147.149 931.542 147.849 931.542 148.729C931.542 149.198 931.635 149.597 931.823 149.928C932.01 150.259 932.253 150.534 932.566 150.759C932.878 150.984 933.24 151.177 933.659 151.34C934.077 151.502 934.514 151.652 934.983 151.802C935.651 152.014 936.325 152.233 936.994 152.476C937.662 152.72 938.268 153.026 938.805 153.413C939.342 153.794 939.773 154.281 940.104 154.881C940.435 155.474 940.597 156.217 940.597 157.091C940.597 158.228 940.385 159.252 939.954 160.152C939.529 161.051 938.917 161.813 938.13 162.443C937.343 163.068 936.388 163.549 935.264 163.88C934.14 164.211 932.884 164.373 931.504 164.373C930.78 164.373 930.086 164.323 929.424 164.23C928.756 164.136 928.15 164.017 927.601 163.874C927.051 163.736 926.564 163.58 926.14 163.405C925.715 163.237 925.384 163.068 925.134 162.912L925.784 159.746C926.564 160.133 927.451 160.458 928.431 160.726C929.412 160.988 930.449 161.126 931.542 161.126C932.322 161.126 933.034 161.045 933.671 160.876C934.302 160.707 934.845 160.47 935.295 160.164C935.745 159.852 936.094 159.471 936.338 159.002C936.588 158.534 936.706 158.009 936.706 157.422H936.7Z" fill="white"></path><path d="M944.844 163.98H941.072L945.356 142.99H950.539C952.488 142.99 953.987 143.171 955.042 143.521C956.278 143.939 957.178 144.57 957.734 145.419C958.289 146.269 958.57 147.255 958.57 148.386C958.57 149.516 958.358 150.49 957.927 151.408C957.503 152.32 956.878 153.107 956.06 153.769C955.242 154.431 954.224 154.937 953.019 155.305C951.813 155.674 950.427 155.855 948.859 155.855C948.066 155.855 947.298 155.805 946.555 155.699L944.856 163.98H944.844ZM947.192 152.495C947.716 152.589 948.328 152.639 949.015 152.639C949.983 152.639 950.833 152.539 951.551 152.339C952.275 152.139 952.869 151.864 953.343 151.508C953.818 151.152 954.174 150.721 954.411 150.215C954.649 149.71 954.767 149.148 954.767 148.542C954.767 148.048 954.636 147.636 954.38 147.305C954.124 146.974 953.774 146.712 953.343 146.537C953.075 146.425 952.738 146.337 952.325 146.287C951.913 146.237 951.395 146.206 950.777 146.206H948.472L947.186 152.495H947.192Z" fill="white"></path><path d="M970.111 142.596C971.317 142.596 972.416 142.765 973.396 143.109C974.383 143.452 975.22 143.958 975.926 144.632C976.625 145.307 977.169 146.144 977.549 147.143C977.93 148.142 978.124 149.291 978.124 150.603C978.124 151.421 978.037 152.32 977.868 153.319C977.699 154.312 977.425 155.318 977.044 156.342C976.663 157.36 976.169 158.353 975.557 159.321C974.951 160.289 974.208 161.144 973.34 161.894C972.466 162.643 971.454 163.243 970.299 163.699C969.143 164.155 967.832 164.379 966.352 164.379C965.147 164.379 964.047 164.211 963.067 163.867C962.08 163.524 961.237 163.018 960.538 162.344C959.838 161.669 959.295 160.832 958.914 159.833C958.533 158.834 958.339 157.685 958.339 156.373C958.339 155.555 958.427 154.656 958.595 153.657C958.764 152.664 959.045 151.658 959.426 150.634C959.807 149.616 960.3 148.623 960.912 147.655C961.518 146.687 962.261 145.831 963.136 145.082C964.004 144.333 965.022 143.733 966.177 143.277C967.332 142.821 968.644 142.596 970.124 142.596H970.111ZM969.849 145.844C969.012 145.844 968.244 145.994 967.545 146.281C966.845 146.575 966.208 146.974 965.634 147.48C965.059 147.986 964.553 148.579 964.116 149.26C963.679 149.941 963.311 150.665 963.017 151.44C962.723 152.214 962.505 153.013 962.355 153.85C962.205 154.681 962.13 155.493 962.13 156.292C962.13 157.091 962.23 157.785 962.442 158.384C962.649 158.984 962.948 159.49 963.329 159.902C963.716 160.308 964.191 160.614 964.747 160.82C965.303 161.02 965.927 161.126 966.62 161.126C967.457 161.126 968.225 160.976 968.925 160.689C969.624 160.395 970.261 159.995 970.836 159.49C971.404 158.984 971.91 158.39 972.353 157.71C972.791 157.029 973.159 156.304 973.453 155.53C973.746 154.756 973.971 153.956 974.121 153.119C974.271 152.289 974.346 151.477 974.346 150.678C974.346 149.085 973.946 147.886 973.147 147.068C972.347 146.25 971.254 145.844 969.862 145.844H969.849Z" fill="white"></path><path d="M981.134 163.98H977.362L981.646 142.99H987.248C988.147 142.99 988.916 143.021 989.559 143.084C990.202 143.146 990.764 143.252 991.251 143.396C992.613 143.795 993.612 144.42 994.243 145.276C994.88 146.131 995.192 147.143 995.192 148.304C995.192 149.154 995.073 149.947 994.842 150.69C994.611 151.433 994.243 152.102 993.743 152.701C993.243 153.294 992.606 153.813 991.826 154.256C991.045 154.693 990.115 155.043 989.022 155.293V155.355L993.618 163.986H989.44L985.293 155.861H982.789L981.134 163.986V163.98ZM983.457 152.639H984.912C985.606 152.639 986.224 152.614 986.767 152.57C987.317 152.52 987.804 152.439 988.235 152.308C989.215 152.033 989.99 151.596 990.558 150.984C991.126 150.372 991.407 149.578 991.407 148.61C991.407 148.111 991.295 147.667 991.07 147.293C990.845 146.918 990.471 146.637 989.959 146.462C989.709 146.381 989.39 146.312 988.997 146.275C988.603 146.237 988.116 146.212 987.529 146.212H984.775L983.457 152.645V152.639Z" fill="white"></path><path d="M1002.38 163.98H998.608L1002.24 146.206H995.748L996.385 142.99H1013.17L1012.52 146.206H1006.02L1002.39 163.98H1002.38Z" fill="white"></path><path d="M1014.03 160.764H1023.79L1023.15 163.98H1009.61L1013.9 142.99H1026.87L1026.21 146.206H1017.02L1015.91 151.633H1023.79L1023.15 154.849H1015.26L1014.03 160.764Z" fill="white"></path><path d="M1035.71 157.422C1035.71 156.942 1035.59 156.548 1035.33 156.248C1035.07 155.942 1034.75 155.693 1034.34 155.493C1033.93 155.293 1033.46 155.118 1032.93 154.968C1032.39 154.818 1031.85 154.656 1031.3 154.487C1030.65 154.275 1030.04 154.031 1029.48 153.75C1028.92 153.469 1028.43 153.12 1028.02 152.707C1027.6 152.295 1027.28 151.796 1027.04 151.209C1026.8 150.621 1026.69 149.941 1026.69 149.166C1026.69 148.186 1026.86 147.287 1027.22 146.475C1027.58 145.663 1028.09 144.97 1028.74 144.395C1029.4 143.821 1030.18 143.377 1031.11 143.059C1032.04 142.746 1033.08 142.59 1034.22 142.59C1035.44 142.59 1036.65 142.721 1037.85 142.99C1039.05 143.252 1040.09 143.589 1041 143.983L1040.33 147.168C1039.16 146.7 1038.13 146.356 1037.22 146.15C1036.3 145.938 1035.39 145.838 1034.47 145.838C1033.24 145.838 1032.28 146.1 1031.59 146.625C1030.9 147.149 1030.55 147.849 1030.55 148.729C1030.55 149.198 1030.65 149.597 1030.83 149.928C1031.02 150.259 1031.26 150.534 1031.58 150.759C1031.89 150.984 1032.25 151.177 1032.67 151.34C1033.09 151.502 1033.52 151.652 1033.99 151.802C1034.66 152.014 1035.34 152.233 1036 152.476C1036.67 152.72 1037.28 153.026 1037.81 153.413C1038.35 153.794 1038.78 154.281 1039.11 154.881C1039.44 155.48 1039.61 156.217 1039.61 157.091C1039.61 158.228 1039.39 159.252 1038.96 160.152C1038.54 161.051 1037.93 161.813 1037.14 162.443C1036.35 163.068 1035.4 163.549 1034.27 163.88C1033.15 164.211 1031.89 164.373 1030.51 164.373C1029.79 164.373 1029.1 164.323 1028.43 164.23C1027.77 164.136 1027.16 164.017 1026.61 163.874C1026.06 163.736 1025.57 163.58 1025.15 163.405C1024.73 163.237 1024.39 163.068 1024.14 162.912L1024.79 159.746C1025.57 160.133 1026.46 160.458 1027.44 160.726C1028.42 160.988 1029.46 161.126 1030.55 161.126C1031.33 161.126 1032.04 161.045 1032.68 160.876C1033.31 160.707 1033.86 160.47 1034.31 160.164C1034.75 159.852 1035.1 159.471 1035.35 159.002C1035.6 158.534 1035.72 158.009 1035.72 157.422H1035.71Z" fill="white"></path><defs><linearGradient id="paint0_linear_18_589" x1="9.67907" y1="232.545" x2="190.449" y2="232.545" gradientUnits="userSpaceOnUse"><stop stop-color="#FFCA2A"></stop><stop offset="0.33" stop-color="#FFCA2C"></stop><stop offset="0.53" stop-color="#FFCD34"></stop><stop offset="0.68" stop-color="#FFD142"></stop><stop offset="0.82" stop-color="#FFD756"></stop><stop offset="0.94" stop-color="#FFDF6F"></stop><stop offset="1" stop-color="#FFE47F"></stop></linearGradient><linearGradient id="paint1_linear_18_589" x1="-290.201" y1="259.835" x2="-289.201" y2="259.835" gradientUnits="userSpaceOnUse"><stop stop-color="#FFCA2A"></stop><stop offset="0.33" stop-color="#FFCA2C"></stop><stop offset="0.53" stop-color="#FFCD34"></stop><stop offset="0.68" stop-color="#FFD142"></stop><stop offset="0.82" stop-color="#FFD756"></stop><stop offset="0.94" stop-color="#FFDF6F"></stop><stop offset="1" stop-color="#FFE47F"></stop></linearGradient><linearGradient id="paint2_linear_18_589" x1="-290.201" y1="265.565" x2="190.449" y2="265.565" gradientUnits="userSpaceOnUse"><stop stop-color="#FFCA2A"></stop><stop offset="0.33" stop-color="#FFCA2C"></stop><stop offset="0.53" stop-color="#FFCD34"></stop><stop offset="0.68" stop-color="#FFD142"></stop><stop offset="0.82" stop-color="#FFD756"></stop><stop offset="0.94" stop-color="#FFDF6F"></stop><stop offset="1" stop-color="#FFE47F"></stop></linearGradient><linearGradient id="paint3_linear_18_589" x1="9.67911" y1="248.265" x2="190.449" y2="248.265" gradientUnits="userSpaceOnUse"><stop stop-color="#FFCA2A"></stop><stop offset="0.33" stop-color="#FFCA2C"></stop><stop offset="0.53" stop-color="#FFCD34"></stop><stop offset="0.68" stop-color="#FFD142"></stop><stop offset="0.82" stop-color="#FFD756"></stop><stop offset="0.94" stop-color="#FFDF6F"></stop><stop offset="1" stop-color="#FFE47F"></stop></linearGradient><linearGradient id="paint4_linear_18_589" x1="9.67927" y1="225.754" x2="190.449" y2="225.754" gradientUnits="userSpaceOnUse"><stop stop-color="#FFCA2A"></stop><stop offset="0.33" stop-color="#FFCA2C"></stop><stop offset="0.53" stop-color="#FFCD34"></stop><stop offset="0.68" stop-color="#FFD142"></stop><stop offset="0.82" stop-color="#FFD756"></stop><stop offset="0.94" stop-color="#FFDF6F"></stop><stop offset="1" stop-color="#FFE47F"></stop></linearGradient></defs></svg>