<?xml version="1.0" encoding="UTF-8"?>
<svg id="Camada_2" data-name="Camada 2" xmlns="http://www.w3.org/2000/svg" viewBox="0 0 1279.89 292.31">
  <defs>
    <style>
      .cls-1 {
        fill: #db2f8b;
        stroke-width: 0px;
      }
    </style>
  </defs>
  <g id="Camada_1-2" data-name="Camada 1">
    <g>
      <path class="cls-1" d="M101.95,53.11c-23.06,0-42.15,8.29-54.4,22.7-.72-13.33-10.45-23.06-23.42-23.06-13.69,0-24.14,10.45-24.14,24.14v190.93c0,14.05,10.45,24.5,24.5,24.5s24.14-10.45,24.14-24.5v-49.71c12.25,13.69,30.98,21.61,53.32,21.61,50.08,0,86.46-39.63,86.46-93.67s-36.38-92.95-86.46-92.95ZM92.94,195.41c-26.66,0-45.03-20.17-45.03-49.35s18.01-48.99,45.03-48.99,46.11,20.54,46.11,49.35-19.45,48.99-46.11,48.99Z"/>
      <path class="cls-1" d="M317.03,76.88c0-13.33-9.01-21.97-21.97-21.97-16.93,0-32.42,7.56-43.59,20.17-1.08-12.61-10.81-21.97-23.42-21.97-13.69,0-24.14,10.45-24.14,24.5v137.26c0,14.05,10.45,24.86,24.5,24.86s24.14-10.45,24.14-24.86v-68.45c0-27.38,15.85-44.31,41.79-46.11,13.69-1.44,22.7-10.45,22.7-23.42Z"/>
      <path class="cls-1" d="M402.77,53.11c-53.68,0-95.47,40.71-95.47,92.95s41.79,93.31,95.11,93.31,96.19-41.43,96.19-93.31-42.51-92.95-95.83-92.95ZM402.77,194.69c-26.66,0-46.11-20.17-46.11-48.27s19.45-48.99,46.11-48.99,46.11,20.89,46.11,48.99-19.81,48.27-46.11,48.27Z"/>
      <path class="cls-1" d="M615.68,53.11c-23.06,0-42.15,8.29-54.4,22.7-.72-13.33-10.45-23.06-23.42-23.06-13.69,0-24.14,10.45-24.14,24.14v190.93c0,14.05,10.45,24.5,24.5,24.5s24.14-10.45,24.14-24.5v-49.71c12.25,13.69,30.98,21.61,53.32,21.61,50.08,0,86.46-39.63,86.46-93.67s-36.38-92.95-86.46-92.95ZM606.67,195.41c-26.66,0-45.03-20.17-45.03-49.35s18.01-48.99,45.03-48.99,46.11,20.54,46.11,49.35-19.45,48.99-46.11,48.99Z"/>
      <path class="cls-1" d="M819.59,53.11c-22.34,0-41.07,7.93-53.32,21.26V24.86c0-14.41-10.45-24.86-24.14-24.86s-24.5,10.81-24.5,24.86v190c0,14.05,10.45,24.86,24.14,24.86,12.61,0,22.34-9.37,23.42-22.7,12.25,14.41,31.34,22.7,54.4,22.7,50.08,0,86.46-39.27,86.46-93.31s-36.38-93.31-86.46-93.31ZM810.58,195.41c-27.02,0-45.03-19.81-45.03-48.99s18.37-49.35,45.03-49.35,46.11,20.89,46.11,48.99-19.09,49.35-46.11,49.35Z"/>
      <path class="cls-1" d="M1024.1,53.11c-19.81,0-37.47,6.85-50.08,18.37-2.52-10.81-11.53-18.37-22.7-18.37-13.69,0-24.14,10.45-24.14,24.5v137.26c0,14.05,10.45,24.86,24.5,24.86s24.14-10.45,24.14-24.86v-83.58c0-20.17,14.05-34.58,33.86-34.58s33.14,14.05,33.14,34.58v83.58c0,14.05,10.45,24.86,24.14,24.86s24.14-10.45,24.14-24.86v-90.06c0-43.59-26.3-71.69-67.01-71.69Z"/>
      <path class="cls-1" d="M1139.75,0c-14.05,0-24.5,10.81-24.5,24.86v190c0,14.05,10.45,24.86,24.5,24.86s24.14-10.45,24.14-24.86V24.86c0-14.41-10.09-24.86-24.14-24.86Z"/>
      <path class="cls-1" d="M1271.96,197.93l-47.55-52.6,43.23-50.8c5.77-6.85,7.93-12.61,7.93-18.01,0-12.97-10.45-23.42-23.42-23.42-7.57,0-14.41,3.24-19.81,10.09l-52.96,65.57c-5.4,6.48-7.56,11.89-7.56,17.29,0,5.76,2.16,11.17,7.56,17.65l57.28,65.21c5.4,6.85,11.89,10.45,19.81,10.45,12.97,0,23.42-10.45,23.42-23.42,0-5.4-2.16-11.17-7.93-18.01Z"/>
    </g>
  </g>
</svg>