<?xml version="1.0" encoding="utf-8"?>
<!-- Generator: Adobe Illustrator 28.0.0, SVG Export Plug-In . SVG Version: 6.00 Build 0)  -->
<svg version="1.1" id="Camada_1" xmlns="http://www.w3.org/2000/svg" xmlns:xlink="http://www.w3.org/1999/xlink" x="0px" y="0px"
	 viewBox="0 0 670.1 275.7" style="enable-background:new 0 0 670.1 275.7;" xml:space="preserve">
<style type="text/css">
	.st0{fill:#FFFFFF;}
</style>
<g>
	<g>
		<g>
			<g>
				<g>
					<path class="st0" d="M467.3,17.4c-1.1,1.2-2.3,2.4-3.3,3.6c-5.6,6.4-10.7,13.3-14.8,20.6c-1.7,3-3.3,6.1-4.8,9.2
						c-1.2,2.6-3.9,4.2-6.8,4.2h-79.4c-22.2,0-41,14.3-47.7,34.2l-11.7,23.2l0,0.1l-36,71.5c-3.4,6.8-8.6,12.3-14.8,16.1
						c-6.2,3.8-13.4,6-21,6c-16,0-30.5-9.5-36.8-24.3l-32.7-76.5l-72.4,88.1c-6.6,8-16.3,12.6-26.7,12.6h-3.6
						c-17.4,0-32.1-13-34.3-30.2L0,11.8c-0.4-3.4,2.7-6.2,6-5.3l45.8,11.8c1.9,0.5,3.2,2,3.6,3.9l19.2,108.5L152.5,36
						c1.6-1.9,3.5-3.4,5.8-4.5c2.2-1,4.6-1.6,7.1-1.6c6.2,0,11.9,3.5,14.8,8.9l48.1,91.8l42.7-75.5c0,0,0,0,0,0
						c8.8-15.3,21.6-28,36.9-36.9c14.8-8.6,32-13.5,50.3-13.5h103.7C468.5,4.7,471.8,12.7,467.3,17.4z"/>
					<path class="st0" d="M463.9,189.8c-5.5-6.2-10.5-13.2-14.8-20.6c-1.7-3-3.3-6-4.8-9.1c-1.2-2.6-3.9-4.3-6.8-4.3h-78.2
						c-26.8,0-49.6-20.4-51.4-47l-29.4,58.2c8,10.3,18,19,29.3,25.6c14.8,8.6,32,13.5,50.3,13.5h103.7c6.6,0,10-7.9,5.4-12.7
						C466.1,192.3,465,191,463.9,189.8z"/>
				</g>
				<g>
					<path class="st0" d="M475.4,161.8L510.1,93c5.5-21.8,25.3-37.9,48.8-37.9h79.4c2.9,0,5.5-1.6,6.8-4.2c1.5-3.1,3.1-6.2,4.8-9.2
						c4.2-7.3,9.2-14.2,14.8-20.6c1.1-1.2,2.2-2.4,3.3-3.6c4.6-4.8,1.2-12.7-5.4-12.7H558.9c-18.3,0-35.5,4.9-50.3,13.5
						c-15.3,8.8-28,21.6-36.9,36.9c-8.6,14.8-13.5,32-13.5,50.4s4.9,35.5,13.5,50.3C472.8,157.8,474.1,159.8,475.4,161.8z"/>
					<path class="st0" d="M664.6,189.8c-5.5-6.2-10.5-13.2-14.8-20.6c-1.7-3-3.3-6-4.8-9.1c-1.2-2.6-3.9-4.3-6.8-4.3h-78.2
						c-26.3,0-48.9-19.7-51.3-45.6l-29,57.5c7.9,10.1,17.7,18.6,28.8,25c14.8,8.6,32,13.5,50.3,13.5h103.7c6.6,0,10-7.9,5.4-12.7
						C666.8,192.3,665.7,191,664.6,189.8z"/>
				</g>
			</g>
		</g>
	</g>
	<g>
		<path class="st0" d="M100.5,249.2h6.7c3,0,5.1,0.6,6.7,2.2c1.1,1.1,1.6,2.5,1.6,4.4c0,2.2-0.8,4-2.2,5.4c-1.9,1.9-4.8,2.9-8.2,2.9
			h-4l-1.7,6.4h-4.7L100.5,249.2z M107.1,253.4h-3l-1.7,6.5h3.2c1.9,0,3.3-0.5,4.2-1.4c0.6-0.6,1-1.4,1-2.4c0-0.7-0.2-1.3-0.7-1.8
			C109.4,253.7,108.5,253.4,107.1,253.4z"/>
		<path class="st0" d="M145.6,249h4.5l3.4,21.4h-4.8l-0.7-4.8h-9l-3.2,4.8h-5L145.6,249z M147.5,261.5l-1-7l-4.7,7H147.5z"/>
		<path class="st0" d="M185.2,263.6h-3.5l-1.8,6.8h-4.7l5.7-21.2h7.7c3.2,0,5.3,0.7,6.7,2.1c1.1,1.1,1.6,2.5,1.6,4.3
			c0,2-0.7,3.8-1.9,5c-0.8,0.8-2.2,1.9-4.9,2.5l3.6,7.3h-5.3L185.2,263.6z M187,259.5c1.8,0,3.4-0.5,4.3-1.4
			c0.5-0.5,0.9-1.3,0.9-2.2c0-0.7-0.2-1.2-0.7-1.7c-0.6-0.6-1.6-0.9-3.1-0.9h-3.9l-1.6,6.1H187z"/>
		<path class="st0" d="M224.6,253.5h-6.5l1.2-4.3h17.6l-1.2,4.3h-6.5l-4.6,16.9H220L224.6,253.5z"/>
		<path class="st0" d="M259.4,249.2h4.7l-5.7,21.2h-4.7L259.4,249.2z"/>
		<path class="st0" d="M284.5,261.5c0-3.4,1.4-6.6,3.8-8.9c2.3-2.3,5.6-3.8,9.2-3.8c4.1,0,6.8,1.7,8.5,4.5L302,256
			c-1.2-1.8-2.7-2.9-5.2-2.9c-1.9,0-3.6,0.8-5,2.2c-1.5,1.5-2.5,3.7-2.5,6c0,3.1,2.2,5.1,5.2,5.1c2.1,0,3.4-0.8,5-2.1l3,3.2
			c-2,1.9-4.5,3.2-8,3.2C288.7,270.8,284.5,267.2,284.5,261.5z"/>
		<path class="st0" d="M329.8,249.2h4.7l-5.7,21.2h-4.7L329.8,249.2z"/>
		<path class="st0" d="M358.9,249.2h6.7c3,0,5.1,0.6,6.7,2.2c1.1,1.1,1.6,2.5,1.6,4.4c0,2.2-0.8,4-2.2,5.4c-1.9,1.9-4.8,2.9-8.2,2.9
			h-4l-1.7,6.4h-4.7L358.9,249.2z M365.5,253.4h-3l-1.7,6.5h3.2c1.9,0,3.3-0.5,4.2-1.4c0.6-0.6,1-1.4,1-2.4c0-0.7-0.2-1.3-0.7-1.8
			C367.8,253.7,366.9,253.4,365.5,253.4z"/>
		<path class="st0" d="M404,249h4.5l3.4,21.4h-4.8l-0.7-4.8h-9l-3.2,4.8h-5L404,249z M405.9,261.5l-1-7l-4.7,7H405.9z"/>
		<path class="st0" d="M436.6,274l3.5-3.7c-3.9-1.2-6.6-4.3-6.6-8.8c0-3.4,1.4-6.6,3.8-8.9c2.3-2.3,5.6-3.8,9.2-3.8
			c4.1,0,6.8,1.7,8.5,4.5l-3.9,2.7c-1.2-1.8-2.7-2.9-5.2-2.9c-1.9,0-3.6,0.8-5,2.2c-1.5,1.5-2.5,3.7-2.5,6c0,3.1,2.2,5.1,5.2,5.1
			c2.1,0,3.4-0.8,5-2.1l3,3.2c-2,1.9-4.5,3.2-8,3.2h-0.3l-3.3,4.9L436.6,274z"/>
		<path class="st0" d="M496.6,258.2c0,3.2-1.4,6.5-3.7,8.9c-2.2,2.2-5.3,3.7-9,3.7c-5.9,0-9.7-4.1-9.7-9.4c0-3.2,1.4-6.5,3.7-8.9
			c2.2-2.2,5.3-3.7,9-3.7C492.7,248.8,496.6,252.9,496.6,258.2z M489.3,264.4c1.5-1.5,2.5-3.8,2.5-5.9c0-3.2-1.9-5.4-5.4-5.4
			c-2,0-3.7,0.9-4.9,2.1c-1.5,1.5-2.5,3.8-2.5,5.9c0,3.2,1.9,5.4,5.4,5.4C486.3,266.5,488,265.6,489.3,264.4z M482.3,246.6
			c1.1-2.5,2.2-4.1,4.4-4.1c1,0,1.9,0.3,2.8,0.7c0.7,0.3,1.3,0.5,1.8,0.5c0.9,0,1.4-0.5,2-1.5l2.5,0.8c-1.1,2.5-2.2,4.1-4.4,4.1
			c-1,0-1.9-0.3-2.8-0.7c-0.7-0.3-1.3-0.5-1.8-0.5c-0.9,0-1.4,0.5-2,1.5L482.3,246.6z"/>
		<path class="st0" d="M522.5,249.2h15.9l-1.1,4.2H526l-1.2,4.3h9.9l-1.1,4.1h-9.9l-1.2,4.5h11.4l-1.1,4.2h-16L522.5,249.2z"/>
		<path class="st0" d="M555.4,266.8l3.5-3c1.7,1.8,3.5,2.8,5.9,2.8c1.9,0,3.2-0.9,3.2-2.2c0-1-0.8-1.6-3.6-2.8
			c-2.8-1.1-5.2-2.6-5.2-5.7c0-1.9,0.7-3.4,1.9-4.6c1.5-1.5,3.9-2.4,6.6-2.4c3.6,0,6.2,1.2,8,3.2l-3.2,3.2c-1.6-1.5-3-2.3-5.1-2.3
			c-2,0-3.1,1.1-3.1,2.2c0,1.1,0.9,1.6,3.7,2.8c2.9,1.2,5.1,2.6,5.1,5.7c0,1.9-0.8,3.5-1.9,4.6c-1.6,1.6-4,2.4-6.5,2.4
			C560.5,270.7,557.4,269.4,555.4,266.8z"/>
	</g>
</g>
</svg>
